<svg width="310" height="140" viewBox="0 0 310 140" fill="none" xmlns="http://www.w3.org/2000/svg">
<path d="M3.86431 62H7.23031L10.8123 50.282H7.96831L6.56431 55.628C6.24031 56.906 5.98831 58.094 5.64631 59.372H5.57431C5.23231 58.094 4.98031 56.906 4.65631 55.628L3.37831 50.282H0.426312L3.86431 62ZM11.7942 62H14.5662V53.054H11.7942V62ZM13.1802 51.794C14.0982 51.794 14.7462 51.236 14.7462 50.354C14.7462 49.49 14.0982 48.932 13.1802 48.932C12.2622 48.932 11.6142 49.49 11.6142 50.354C11.6142 51.236 12.2622 51.794 13.1802 51.794ZM20.8711 62.216C21.9331 62.216 23.1571 61.874 24.0931 61.208L23.1931 59.534C22.5631 59.894 21.9151 60.092 21.2671 60.092C20.1331 60.092 19.2871 59.57 19.0351 58.364H24.3091C24.3631 58.112 24.4171 57.644 24.4171 57.14C24.4171 54.71 23.1571 52.838 20.5651 52.838C18.4231 52.838 16.3351 54.62 16.3351 57.518C16.3351 60.506 18.3151 62.216 20.8711 62.216ZM18.9991 56.492C19.1791 55.448 19.8451 54.944 20.6371 54.944C21.6451 54.944 22.0411 55.61 22.0411 56.492H18.9991ZM27.5796 62H30.8016L31.5036 58.562C31.6656 57.734 31.7736 56.942 31.9176 55.916H31.9896C32.1336 56.942 32.2776 57.734 32.4396 58.562L33.1596 62H36.4716L38.5776 53.054H36.0036L35.2116 57.086C35.0496 57.95 34.9776 58.814 34.8156 59.786H34.7436C34.5816 58.814 34.4196 57.95 34.2216 57.086L33.2676 53.054H30.8016L29.8836 57.086C29.6856 57.932 29.5416 58.814 29.3796 59.786H29.3076C29.1816 58.814 29.0736 57.95 28.9296 57.086L28.1196 53.054H25.3656L27.5796 62ZM46.8112 56.132C47.1172 54.98 47.4232 53.594 47.7112 52.37H47.7832C48.0892 53.594 48.3952 54.98 48.7012 56.132L48.9532 57.14H46.5592L46.8112 56.132ZM42.4732 62H45.3352L46.0192 59.3H49.4932L50.1772 62H53.1292L49.4752 50.282H46.1272L42.4732 62ZM56.6603 62.216C57.2723 62.216 57.7403 62.108 58.0463 61.982L57.7223 59.93C57.5783 59.966 57.5063 59.966 57.3983 59.966C57.1823 59.966 56.8943 59.786 56.8943 59.21V49.418H54.1223V59.102C54.1223 60.974 54.7523 62.216 56.6603 62.216ZM61.881 62.216C62.493 62.216 62.961 62.108 63.267 61.982L62.943 59.93C62.799 59.966 62.727 59.966 62.619 59.966C62.403 59.966 62.115 59.786 62.115 59.21V49.418H59.343V59.102C59.343 60.974 59.973 62.216 61.881 62.216Z" fill="#FFB30E"/>
<path d="M82.4062 56.5312C82.6875 56.25 82.6875 55.7812 82.4062 55.5L76.3438 49.4062C76.0312 49.125 75.5625 49.125 75.2812 49.4062L74.5625 50.125C74.2812 50.4062 74.2812 50.875 74.5625 51.1875L79.375 56L74.5625 60.8438C74.2812 61.1562 74.2812 61.625 74.5625 61.9062L75.2812 62.625C75.5625 62.9062 76.0312 62.9062 76.3438 62.625L82.4062 56.5312Z" fill="#FFB30E"/>
<g filter="url(#filter0_dd_401_1751)">
<rect x="110" y="18" width="76" height="76" rx="38" fill="#FFB30E"/>
<path d="M138.879 54.5938C138.299 55.1738 138.299 56.1406 138.879 56.7207L151.383 69.2891C152.027 69.8691 152.994 69.8691 153.574 69.2891L155.057 67.8066C155.637 67.2266 155.637 66.2598 155.057 65.6152L145.131 55.625L155.057 45.6992C155.637 45.0547 155.637 44.0879 155.057 43.5078L153.574 42.0254C152.994 41.4453 152.027 41.4453 151.383 42.0254L138.879 54.5938Z" fill="white"/>
<rect x="110.5" y="18.5" width="75" height="75" rx="37.5" stroke="#FAAA01"/>
</g>
<g filter="url(#filter1_dd_401_1751)">
<rect x="202" y="18" width="76" height="76" rx="38" fill="#FFB30E"/>
<path d="M249.057 56.7207C249.637 56.1406 249.637 55.1738 249.057 54.5938L236.553 42.0254C235.908 41.4453 234.941 41.4453 234.361 42.0254L232.879 43.5078C232.299 44.0879 232.299 45.0547 232.879 45.6992L242.805 55.625L232.879 65.6152C232.299 66.2598 232.299 67.2266 232.879 67.8066L234.361 69.2891C234.941 69.8691 235.908 69.8691 236.553 69.2891L249.057 56.7207Z" fill="white"/>
<rect x="202.5" y="18.5" width="75" height="75" rx="37.5" stroke="#FAAA01"/>
</g>
<defs>
<filter id="filter0_dd_401_1751" x="78" y="0" width="140" height="140" filterUnits="userSpaceOnUse" color-interpolation-filters="sRGB">
<feFlood flood-opacity="0" result="BackgroundImageFix"/>
<feColorMatrix in="SourceAlpha" type="matrix" values="0 0 0 0 0 0 0 0 0 0 0 0 0 0 0 0 0 0 127 0" result="hardAlpha"/>
<feOffset dy="14"/>
<feGaussianBlur stdDeviation="16"/>
<feColorMatrix type="matrix" values="0 0 0 0 1 0 0 0 0 0.698039 0 0 0 0 0.054902 0 0 0 0.29 0"/>
<feBlend mode="normal" in2="BackgroundImageFix" result="effect1_dropShadow_401_1751"/>
<feColorMatrix in="SourceAlpha" type="matrix" values="0 0 0 0 0 0 0 0 0 0 0 0 0 0 0 0 0 0 127 0" result="hardAlpha"/>
<feOffset dy="5"/>
<feGaussianBlur stdDeviation="4"/>
<feColorMatrix type="matrix" values="0 0 0 0 0.870833 0 0 0 0 0.5926 0 0 0 0 0 0 0 0 0.24 0"/>
<feBlend mode="normal" in2="effect1_dropShadow_401_1751" result="effect2_dropShadow_401_1751"/>
<feBlend mode="normal" in="SourceGraphic" in2="effect2_dropShadow_401_1751" result="shape"/>
</filter>
<filter id="filter1_dd_401_1751" x="170" y="0" width="140" height="140" filterUnits="userSpaceOnUse" color-interpolation-filters="sRGB">
<feFlood flood-opacity="0" result="BackgroundImageFix"/>
<feColorMatrix in="SourceAlpha" type="matrix" values="0 0 0 0 0 0 0 0 0 0 0 0 0 0 0 0 0 0 127 0" result="hardAlpha"/>
<feOffset dy="14"/>
<feGaussianBlur stdDeviation="16"/>
<feColorMatrix type="matrix" values="0 0 0 0 1 0 0 0 0 0.698039 0 0 0 0 0.054902 0 0 0 0.29 0"/>
<feBlend mode="normal" in2="BackgroundImageFix" result="effect1_dropShadow_401_1751"/>
<feColorMatrix in="SourceAlpha" type="matrix" values="0 0 0 0 0 0 0 0 0 0 0 0 0 0 0 0 0 0 127 0" result="hardAlpha"/>
<feOffset dy="5"/>
<feGaussianBlur stdDeviation="4"/>
<feColorMatrix type="matrix" values="0 0 0 0 0.870833 0 0 0 0 0.5926 0 0 0 0 0 0 0 0 0.24 0"/>
<feBlend mode="normal" in2="effect1_dropShadow_401_1751" result="effect2_dropShadow_401_1751"/>
<feBlend mode="normal" in="SourceGraphic" in2="effect2_dropShadow_401_1751" result="shape"/>
</filter>
</defs>
</svg>
